<svg xmlns="http://www.w3.org/2000/svg" viewBox="0 0 512 512" width="512" height="512">
  <g transform="translate(51.2000,51.9642) scale(0.382090)" fill="#ffffff" stroke="none">
    <g transform="translate(0,1068) scale(0.1,-0.1)">
      <path d="M5760 10320 l0 -360 -360 0 -360 0 0 -1780 0 -1780 -360 0 -360 0 0
-360 0 -360 -380 0 -380 0 0 360 0 360 -340 0 -340 0 0 -1060 0 -1060 340 0
340 0 0 340 c0 333 0 340 20 340 13 0 20 7 20 20 0 20 7 20 700 20 l700 0 0
340 c0 333 0 340 20 340 13 0 20 7 20 20 0 20 7 20 340 20 333 0 340 0 340
-20 0 -13 7 -20 20 -20 20 0 20 -7 20 -360 l0 -360 -360 0 -360 0 0 -720 0
-720 -360 0 -360 0 0 -340 0 -340 1060 0 1060 0 0 340 0 340 -360 0 -360 0 0
360 c0 353 0 360 20 360 13 0 20 7 20 20 0 20 7 20 340 20 l340 0 0 340 c0
333 0 340 20 340 13 0 20 7 20 20 0 20 7 20 1760 20 l1760 0 0 340 c0 333 0
340 20 340 13 0 20 7 20 20 0 20 7 20 340 20 l340 0 0 340 0 340 -2140 0
-2140 0 0 2140 0 2140 -340 0 -340 0 0 -360z M760 7100 c0 -13 -7 -20 -20 -20 -20 0 -20 -7 -20 -340 l0 -340 -340
0 c-333 0 -340 0 -340 -20 0 -13 -7 -20 -20 -20 -20 0 -20 -7 -20 -1040 l0
-1040 360 0 360 0 0 1060 0 1060 1060 0 c1053 0 1060 0 1060 20 0 13 7 20 20
20 20 0 20 7 20 320 0 313 0 320 -20 320 -13 0 -20 7 -20 20 0 20 -7 20 -1040
20 -1033 0 -1040 0 -1040 -20z M720 3900 l0 -340 1080 0 1080 0 0 340 0 340 -1080 0 -1080 0 0 -340z M3600 1740 l0 -1060 340 0 340 0 0 1060 0 1060 -340 0 -340 0 0
-1060z M6480 1740 l0 -1060 340 0 340 0 0 1060 0 1060 -340 0 -340 0 0
-1060z M4320 340 l0 -340 1060 0 1060 0 0 340 0 340 -1060 0 -1060 0 0 -340z"/>
    </g>
  </g>
</svg>
